<svg xmlns="http://www.w3.org/2000/svg" viewBox="0 0 36 36"><defs><style>.cls-1{fill:none;}</style></defs><title>Personal</title><g id="Location"><path class="cls-1" d="M34.9,10h36V46h-36Z"/></g><g id="Personal"><path class="cls-1" d="M0,0H36V36H0Z"/><path d="M18,6.37A5.63,5.63,0,1,0,23.62,12h0A5.64,5.64,0,0,0,18,6.37Zm0,9a3.38,3.38,0,1,1,.37,0A2.29,2.29,0,0,1,18,15.37Zm0,6c-3.94,0-11.62,2-11.62,5.64v2.61H29.62V27C29.62,23.37,21.9,21.37,18,21.37Zm-9.51,6,.16-.47C9.07,25.55,14,23.62,18,23.62s9,1.93,9.36,3.29l.14.46Z"/></g></svg>