<svg xmlns="http://www.w3.org/2000/svg" viewBox="0 0 36 36"><defs><style>.cls-1{fill:none;}</style></defs><title>Show</title><g id="Show"><path class="cls-1" d="M0,0H36V36H0Z"/><path d="M18,11.62A6.38,6.38,0,1,0,24.38,18h0A6.4,6.4,0,0,0,18,11.62Zm0,10.5A4.13,4.13,0,1,1,22.13,18h0A4.11,4.11,0,0,1,18,22.12Zm0-10.5A6.38,6.38,0,1,0,24.38,18h0A6.4,6.4,0,0,0,18,11.62Zm0,10.5A4.13,4.13,0,1,1,22.13,18h0A4.11,4.11,0,0,1,18,22.12Zm0-10.5A6.38,6.38,0,1,0,24.38,18h0A6.4,6.4,0,0,0,18,11.62Zm0,10.5A4.13,4.13,0,1,1,22.13,18h0A4.11,4.11,0,0,1,18,22.12Zm0-10.5A6.38,6.38,0,1,0,24.38,18h0A6.4,6.4,0,0,0,18,11.62Zm0,10.5A4.13,4.13,0,1,1,22.13,18h0A4.11,4.11,0,0,1,18,22.12Zm0-10.5A6.38,6.38,0,1,0,24.38,18h0A6.4,6.4,0,0,0,18,11.62Zm0,10.5A4.13,4.13,0,1,1,22.13,18h0A4.11,4.11,0,0,1,18,22.12Zm0-15A17.27,17.27,0,0,0,1.91,18,17.36,17.36,0,0,0,34.1,18,17.28,17.28,0,0,0,18,7.13Zm0,19.49A15,15,0,0,1,4.44,18.17L4.35,18l.09-.17a15.11,15.11,0,0,1,27.13,0l.08.17-.08.16A15,15,0,0,1,18,26.62Zm0-15A6.38,6.38,0,1,0,24.38,18,6.38,6.38,0,0,0,18,11.61Zm0,10.5A4.13,4.13,0,1,1,22.13,18v0A4.11,4.11,0,0,1,18,22.12h0Zm0-10.5A6.38,6.38,0,1,0,24.38,18,6.38,6.38,0,0,0,18,11.61Zm0,10.5A4.13,4.13,0,1,1,22.13,18v0A4.11,4.11,0,0,1,18,22.12h0Zm0-10.5A6.38,6.38,0,1,0,24.38,18,6.38,6.38,0,0,0,18,11.61Zm0,10.5A4.13,4.13,0,1,1,22.13,18v0A4.11,4.11,0,0,1,18,22.12h0Zm0-10.5A6.38,6.38,0,1,0,24.38,18,6.38,6.38,0,0,0,18,11.61Zm0,10.5A4.13,4.13,0,1,1,22.13,18v0A4.11,4.11,0,0,1,18,22.12h0Zm0-10.5A6.38,6.38,0,1,0,24.38,18,6.38,6.38,0,0,0,18,11.61Zm0,10.5A4.13,4.13,0,1,1,22.13,18v0A4.11,4.11,0,0,1,18,22.12h0Zm0-10.5A6.38,6.38,0,1,0,24.38,18,6.38,6.38,0,0,0,18,11.61Zm0,10.5A4.13,4.13,0,1,1,22.13,18v0A4.11,4.11,0,0,1,18,22.12h0Z"/></g></svg>