<svg xmlns="http://www.w3.org/2000/svg" viewBox="0 0 36 36"><defs><style>.cls-1{fill:none;}</style></defs><title>Think</title><g id="Think"><rect class="cls-1" width="36" height="36"/><path d="M11.4,19.65a1.2,1.2,0,1,0,1.2,1.2A1.16,1.16,0,0,0,11.4,19.65Z"/><path d="M17.6,19.65a1.2,1.2,0,1,0,1.2,1.2A1.1,1.1,0,0,0,17.6,19.65Z"/><path d="M23.9,19.65a1.2,1.2,0,1,0,1.2,1.2A1.1,1.1,0,0,0,23.9,19.65Z"/><path d="M29,15.85h-.6l-.1-.6a10.5,10.5,0,0,0-19.6-2.9l-.2.4H8.1A8.23,8.23,0,0,0,.8,21,8.32,8.32,0,0,0,9,29.25H28.5a6.71,6.71,0,0,0,.5-13.4Zm-.5,12H9a6.72,6.72,0,0,1-6.7-6.8,6.65,6.65,0,0,1,6-6.7l1.2-.1.6-1.1a8.84,8.84,0,0,1,8-4.8,8.9,8.9,0,0,1,8.8,7.3l.3,1.7,1.7.1a5.2,5.2,0,0,1-.4,10.4Z"/></g></svg>