<svg xmlns="http://www.w3.org/2000/svg" viewBox="0 0 36 36"><defs><style>.cls-1{fill:none;}.cls-2{fill-rule:evenodd;}</style></defs><title>Wink</title><g id="Wink"><rect class="cls-1" width="36" height="36"/><path class="cls-2" d="M23.25,12.69a1.82,1.82,0,0,0-1,.32,1.91,1.91,0,0,0-.7.84,1.84,1.84,0,0,0-.1,1.09,1.86,1.86,0,0,0,1.47,1.47,1.84,1.84,0,0,0,1.09-.1,1.91,1.91,0,0,0,.84-.7,1.82,1.82,0,0,0,.32-1,1.88,1.88,0,0,0-1.88-1.88Z"/><path class="cls-2" d="M28.34,7.65A14.63,14.63,0,1,0,32.63,18,14.62,14.62,0,0,0,28.34,7.65ZM26.75,26.74A12.36,12.36,0,1,1,30.38,18,12.38,12.38,0,0,1,26.75,26.74Z"/><path class="cls-2" d="M16.28,13.53h-.09L16,13.44l-.77-.18A11.12,11.12,0,0,0,13,13a11.12,11.12,0,0,0-2.2.27l-.77.18-.22.07H9.72l.28,1,.28,1h0l0,0,.19,0,.68-.16A9.14,9.14,0,0,1,13,15a9.14,9.14,0,0,1,1.78.23l.68.16.2,0,0,0h0l.28-1,.28-1Z"/></g></svg>